<svg xmlns="http://www.w3.org/2000/svg" width="50.5" height="50.5" viewBox="0 0 50.5 50.5">
  <title>books</title>
  <g id="7bafc054-149b-466a-be05-d7d5e035584b" data-name="books">
    <g>
      <g>
        <path d="M7.49,9.59V40.14H25V9.59Zm14,25.67H11c-.34,0-.61-.39-.61-.86s.28-.86.61-.86H21.47c.34,0,.61.39.61.86S21.8,35.26,21.46,35.26Zm0-4.38H11c-.34,0-.61-.39-.61-.86s.28-.86.61-.86H21.47c.34,0,.61.39.61.86S21.8,30.88,21.46,30.88Zm0-4.63H11c-.34,0-.61-.39-.61-.86s.28-.86.61-.86H21.47c.34,0,.61.39.61.86S21.8,26.25,21.46,26.25Zm0-4.63H11c-.34,0-.61-.39-.61-.86s.28-.86.61-.86H21.47c.34,0,.61.39.61.86S21.8,21.61,21.46,21.61Zm0-4.64H11c-.34,0-.61-.39-.61-.86s.28-.86.61-.86H21.47c.34,0,.61.39.61.86S21.8,17,21.46,17Z"/>
        <path d="M25.73,9.59V40.14H43.23V9.59Zm2.92,24.8c0-.47.28-.86.61-.86H39.71c.34,0,.61.39.61.86s-.28.86-.61.86H29.25C28.92,35.26,28.65,34.87,28.65,34.39Zm0-4.37c0-.47.28-.86.61-.86H39.71c.34,0,.61.39.61.86s-.28.86-.61.86H29.25C28.92,30.88,28.65,30.49,28.65,30Zm0-4.63c0-.47.28-.86.61-.86H39.71c.34,0,.61.39.61.86s-.28.86-.61.86H29.25C28.92,26.25,28.65,25.86,28.65,25.39Zm0-4.64c0-.47.28-.86.61-.86H39.71c.34,0,.61.39.61.86s-.28.86-.61.86H29.25C28.92,21.61,28.65,21.23,28.65,20.75Zm0-4.63c0-.47.28-.86.61-.86H39.71c.34,0,.61.39.61.86S40,17,39.71,17H29.25C28.92,17,28.65,16.59,28.65,16.11Z"/>
      </g>
      <path d="M44,10.31V41.4H6.51V10.18H6.34V41.66H44.2V10.28Z" stroke="#000" stroke-miterlimit="10" stroke-width="0.84"/>
    </g>
  </g>
</svg>
