<svg xmlns="http://www.w3.org/2000/svg" width="50.5" height="50.5" viewBox="0 0 50.5 50.5">
  <title>ephemera</title>
  <g id="6295dce4-ec5a-478d-9b0b-6c5344431040" data-name="emphemera">
    <path d="M14.11,10.64V37.55a3,3,0,0,1-3,3H37.6a3,3,0,0,0,3-3V10.64Zm4.27,4.27h8.54v6H18.38Zm12,0h6a.85.85,0,0,1,0,1.71h-6a.85.85,0,0,1,0-1.71ZM9,27.73v9.82a2.14,2.14,0,0,0,4.27,0V27.73Zm21.35-8.54h6a.85.85,0,0,1,0,1.71h-6a.85.85,0,0,1,0-1.71Zm-12,5.13H36.31a.85.85,0,0,1,0,1.71H18.38a.85.85,0,0,1,0-1.71Zm0,4.7H36.31a.85.85,0,0,1,0,1.71H18.38a.85.85,0,0,1,0-1.71Zm0,4.7H36.31a.85.85,0,0,1,0,1.71H18.38a.85.85,0,0,1,0-1.71Z"/>
  </g>
</svg>
