<svg xmlns="http://www.w3.org/2000/svg" width="50.5" height="50.5" viewBox="0 0 50.5 50.5">
  <title>non-catholic</title>
  <g id="ce066d94-e6aa-42fd-96c8-5de55d304fb7" data-name="non-catholic">
    <g>
      <path d="M5,40.12h9.76V20.06H5Zm32.56,0h7.85V16.3H37.58ZM27.19,14.06,32.1,15v3.39l1.83,4.56V37.76l-5.41,0V29.36H23.79v8.4H18.38V22.93l1.75-4.56V15l5-.91Zm2.18,23.7,4.56,1.07H18.38v1.29H33.93Z"/>
      <path d="M29.73,18.93H27.4l-1.13-2-1.13,2H22.8L24,21,22.8,23h2.34l1.13,2,1.13-2h2.34l-1.17-2Zm-3.47-.8.46.8H25.8Zm.8,1.38L27.9,21l-.83,1.45h-1.6L24.63,21l.83-1.45Zm-3.27,0h1l-.5.87Zm0,2.89.5-.87.5.87Zm2.47,1.38L25.8,23h.93Zm2.47-1.38h-1l.5-.87Zm-1-2.89h1l-.5.87Z" fill="#fff"/>
    </g>
  </g>
</svg>
