<svg xmlns="http://www.w3.org/2000/svg" width="50.5" height="50.5" viewBox="0 0 50.5 50.5">
  <title>all-layers</title>
  <g id="048f4bc2-d418-4368-b9e9-fe2c5c28f14c" data-name="non-catholic">
    <g>
      <path d="M-25.65,65H-2.09V16.6H-25.65ZM53,65H71.92V7.51H53ZM27.88,2.11,39.73,4.35v8.18l4.43,11V59.33l-13.06,0V39.05H19.67V59.33H6.6V23.54l4.22-11V4.35l12.11-2.2Zm5.26,57.21,11,2.58H6.6V65H44.16Z"/>
      <path d="M34,13.88H28.38L25.65,9.14l-2.73,4.74H17.27l2.82,4.89-2.82,4.89h5.64l2.73,4.74,2.73-4.74H34L31.2,18.76Zm-8.38-1.94,1.12,1.94H24.53Zm1.93,3.34,2,3.49-2,3.49H23.72l-2-3.49,2-3.49Zm-7.89,0h2.42L20.9,17.37Zm0,7,1.21-2.09,1.21,2.09Zm6,3.34-1.12-1.94h2.24Zm6-3.34H29.19l1.21-2.09Zm-2.42-7h2.42L30.4,17.37Z" fill="#fff"/>
    </g>
  </g>
</svg>
