<svg xmlns="http://www.w3.org/2000/svg" width="50.5" height="50.5" viewBox="0 0 50.5 50.5">
  <title>plague</title>
  <g id="9164f592-a621-4f50-bbba-3cb4aec015e8" data-name="plague2">
    <path d="M43.91,30.42V26.9H38.28a26.46,26.46,0,0,0,.35-3.52,6.6,6.6,0,0,0-.18-1.94,7,7,0,0,0,5.46-6.87,7.06,7.06,0,0,0-7-7,7.21,7.21,0,0,0-6.51,4.23,15,15,0,0,0-4-.7,10.33,10.33,0,0,0-4,.7,7.41,7.41,0,0,0-6.51-4.23,7.06,7.06,0,0,0-7,7,7,7,0,0,0,5.46,6.87A7.22,7.22,0,0,0,14,23.38a26.46,26.46,0,0,0,.35,3.52H8.7v3.52h6.69a19.75,19.75,0,0,0,.88,2.29L9.75,36.06l1.58,3.17,6.51-3.17c2.29,3.87,5.28,7,8.63,7s6.34-3,8.63-7l6.51,3.17,1.58-3.17-6.51-3.35c.35-.7.53-1.41.88-2.29Zm-10.56-8.8a1.76,1.76,0,1,1-1.76,1.76A1.76,1.76,0,0,1,33.35,21.62ZM36,11.05a4.35,4.35,0,0,1,1.94,8.28,11.1,11.1,0,0,0-5.46-6.51A4.6,4.6,0,0,1,36,11.05ZM19.26,21.62a1.76,1.76,0,0,1,0,3.52,1.66,1.66,0,0,1-1.76-1.76A1.76,1.76,0,0,1,19.26,21.62Zm-7-6.16a4.36,4.36,0,0,1,4.4-4.4,4.6,4.6,0,0,1,3.52,1.76,11.1,11.1,0,0,0-5.46,6.51A4.33,4.33,0,0,1,12.22,15.46ZM26.31,39.23c-1.94,0-3.52-1.23-3.52-2.64s1.58-2.64,3.52-2.64,3.52,1.23,3.52,2.64S28.24,39.23,26.31,39.23Z"/>
  </g>
</svg>
