<svg xmlns="http://www.w3.org/2000/svg" width="50.5" height="50.5" viewBox="0 0 50.5 50.5">
  <title>arrow2</title>
  <g id="eaeac1fb-a384-4273-8011-e3bb55d1e8da" data-name="arrow 2">
    <path d="M43.83,23.56,30.57,10.3a2.73,2.73,0,0,0-4-.25l-.5.45c-.9,1.1-1.15,2.34-.1,3.29l9.77,9.77a2.92,2.92,0,0,1,0,4.14c-3.29,3.24-6.53,6.53-9.77,9.77-1,.95-.8,2.19.1,3.24l.5.5a2.73,2.73,0,0,0,4-.25L43.83,27.7A2.92,2.92,0,0,0,43.83,23.56Z"/>
    <path d="M26.83,23.56,13.57,10.3a2.73,2.73,0,0,0-4-.25L9,10.5c-.9,1.1-1.15,2.34-.1,3.29l9.77,9.77a2.92,2.92,0,0,1,0,4.14c-3.29,3.24-6.53,6.53-9.77,9.77-1,.95-.8,2.19.1,3.24l.5.5a2.73,2.73,0,0,0,4-.25L26.83,27.7A2.92,2.92,0,0,0,26.83,23.56Z"/>
  </g>
</svg>
