<svg xmlns="http://www.w3.org/2000/svg" width="50.5" height="50.5" viewBox="0 0 50.5 50.5">
  <title>convent</title>
  <g id="6fc9fcab-5f72-4054-a2dc-99cd0f6db3a9" data-name="convent">
    <path d="M40.56,37c-5.32-4.38-5.12-4.26-5.44-17.75-.14-5.72-3.69-9.16-8.82-9.16-5.84,0-8.82,4.44-8.93,9.16C17,32.72,17.41,32.43,11.94,37c-2.8,2.35-1.43,7.44-1.43,7.44H42S43.37,39.3,40.56,37ZM25.25,40.13h-4l1.83-8.47c.37-1.69,2.18-1.6,2.18.26Zm1-11.73c-3.75,0-6-4.06-6-8.76,0-3.52,12-3.52,12,0C32.26,24.33,30,28.39,26.25,28.39Zm5,11.73h-4V31.92c0-1.86,1.8-2,2.18-.29Zm-5-15.48h0Z"/>
  </g>
</svg>
