<svg xmlns="http://www.w3.org/2000/svg" width="50.5" height="50.5" viewBox="0 0 50.5 50.5">
  <title>culture</title>
  <g id="d490a353-0e71-4683-b272-aee278e112a0" data-name="cultural">
    <g>
      <circle cx="13.72" cy="9.32" r="4.63"/>
      <circle cx="25.13" cy="9.32" r="4.63"/>
      <circle cx="36.48" cy="9.32" r="4.63"/>
      <path d="M31.76,15.62H18.56a2,2,0,0,0-2,2V29.33a2,2,0,0,0,2,2h.63V45.81h11.7V31.38h.87a2,2,0,0,0,2-2V17.66A2,2,0,0,0,31.76,15.62Z"/>
      <g>
        <path d="M13.64,29.33V17.66a4.88,4.88,0,0,1,.46-2H7.27a2,2,0,0,0-2,2V29.33a2,2,0,0,0,2,2H7.9V45.81h8.4V33.71A4.93,4.93,0,0,1,13.64,29.33Z"/>
        <path d="M43.23,15.62h-7a4.89,4.89,0,0,1,.46,2V29.33a4.93,4.93,0,0,1-2.91,4.49v12h8.58V31.38h.87a2,2,0,0,0,2-2V17.66A2,2,0,0,0,43.23,15.62Z"/>
      </g>
    </g>
  </g>
</svg>
