<svg xmlns="http://www.w3.org/2000/svg" width="50.5" height="50.5" viewBox="0 0 50.5 50.5">
  <title>ritual</title>
  <g id="cf518ed7-07d5-4995-9dee-1fdb436b7ad6" data-name="rituals">
    <g>
      <path d="M16.33,30.17a.94.94,0,0,1-.94-.94V27.77a.94.94,0,1,0-1.87,0v4.88a.94.94,0,0,1-1.87,0V28.51a.94.94,0,1,0-1.87,0v2.15a.94.94,0,0,1-1.87,0V43.34h9.37V29.23A.93.93,0,0,1,16.33,30.17Z"/>
      <rect x="11.76" y="20.39" width="1.65" height="2.43"/>
      <path d="M12.58,21.21c-1.86,0-3.74-1.53-3.74-4.45,0-2.58,3.28-5.4,3.31-5.42a.82.82,0,0,1,.85,0s3.31,2.84,3.31,5.42C16.32,19.68,14.44,21.21,12.58,21.21Zm0-8c-.85.89-2.09,2.43-2.09,3.56,0,1.94,1,2.8,2.09,2.8s2.09-.87,2.09-2.8C14.67,15.63,13.43,14.09,12.58,13.2Z"/>
      <path d="M43.19,38.4a.94.94,0,0,1-.94-.94V33.7a.94.94,0,0,0-1.87,0v5.07a.94.94,0,0,1-1.87,0V34.43a.94.94,0,0,0-1.87,0v1.65a.94.94,0,0,1-1.87,0v7.25h9.37V37.47A.93.93,0,0,1,43.19,38.4Z"/>
      <rect x="38.62" y="26.31" width="1.65" height="2.43"/>
      <path d="M39.45,27.13c-1.86,0-3.74-1.53-3.74-4.45,0-2.58,3.28-5.4,3.31-5.42a.82.82,0,0,1,.85,0s3.31,2.84,3.31,5.42C43.18,25.61,41.3,27.13,39.45,27.13Zm0-8c-.85.89-2.09,2.43-2.09,3.56,0,1.94,1,2.8,2.09,2.8s2.09-.87,2.09-2.8C41.54,21.55,40.3,20,39.45,19.12Z"/>
      <path d="M29.76,25.23a.94.94,0,0,1-.94-.94V22.83a.94.94,0,0,0-1.87,0v1.46a.94.94,0,1,1-1.87,0v-.72a.94.94,0,1,0-1.87,0v.72a.94.94,0,0,1-1.87,0v19H30.7v-19A.94.94,0,0,1,29.76,25.23Z"/>
      <rect x="25.19" y="15.45" width="1.65" height="2.43"/>
      <path d="M26,16.27c-1.86,0-3.74-1.53-3.74-4.45,0-2.58,3.28-5.4,3.31-5.42a.82.82,0,0,1,.85,0s3.31,2.84,3.31,5.42C29.75,14.74,27.87,16.27,26,16.27Zm0-8c-.85.89-2.09,2.43-2.09,3.56,0,1.94,1,2.8,2.09,2.8s2.09-.87,2.09-2.8C28.1,10.69,26.86,9.15,26,8.26Z"/>
      <path d="M17.27,44.16H7.9a.82.82,0,0,1-.82-.82V22.91a.82.82,0,0,1,.82-.82h9.37a.82.82,0,0,1,.82.82V43.34A.82.82,0,0,1,17.27,44.16ZM8.72,42.52h7.72V23.74H8.72Z"/>
      <path d="M30.7,44.16H21.33a.82.82,0,0,1-.82-.82V18a.82.82,0,0,1,.82-.82H30.7a.82.82,0,0,1,.82.82V43.34A.82.82,0,0,1,30.7,44.16Zm-8.54-1.65h7.72V18.8H22.16Z"/>
      <path d="M44.13,44.16H34.76a.82.82,0,0,1-.82-.82V28.84a.82.82,0,0,1,.82-.82h9.37a.82.82,0,0,1,.82.82v14.5A.82.82,0,0,1,44.13,44.16Zm-8.54-1.65h7.72V29.66H35.59Z"/>
    </g>
  </g>
</svg>
