<svg xmlns="http://www.w3.org/2000/svg" width="50.5" height="50.5" viewBox="0 0 50.5 50.5">
  <title>bascilica</title>
  <g id="52b0ac8b-23f0-40d6-9cca-cd570371f650" data-name="bascilica">
    <path d="M4.38,46.41H46.12V24.85h0A4.34,4.34,0,0,0,43.34,21V20l-.69-1L42,20v1a4.34,4.34,0,0,0-2.77,3.87h0v2.43H35.71V20.34c0-6.13-3.53-9.43-8.67-12V7.08L25.48,4.59a.34.34,0,0,0,.17-.29.35.35,0,0,0-.69,0,.34.34,0,0,0,.17.29L23.57,7.08V8.36c-5.14,2.55-8.67,5.85-8.67,12v6.94H11.42V24.85h0A4.34,4.34,0,0,0,8.65,21V20L8,19l-.69,1v1a4.34,4.34,0,0,0-2.77,3.87h0v2.43ZM9,43.64H6.91V41.21a1,1,0,1,1,2.08,0v2.43ZM9,36H6.91V32.19a1,1,0,1,1,2.08,0V36Zm0-8.73H6.91v-1a1,1,0,0,1,2.08,0v1Zm22.2,4.91V36H29.12V32.19a1,1,0,1,1,2.08,0Zm-4.51.35V36H23.91V32.54a1.39,1.39,0,1,1,2.78,0Zm-5.2-.35V36H19.4V32.19a1,1,0,1,1,2.08,0Zm7.63-11.85H31.2v3.47H29.12Zm-4.86,0h2.08v3.47H24.26Zm-4.86,0h2.08v3.47H19.4Zm2.43,20.87V45H19.06V41.21h0a1.39,1.39,0,1,1,2.77,0ZM27,45H23.57V38.78H27Zm4.51-3.81V45H28.77V41.21h0a1.39,1.39,0,1,1,2.77,0Zm12.14,2.43H41.61V41.21a1,1,0,1,1,2.08,0v2.43Zm0-7.63H41.61V32.19a1,1,0,1,1,2.08,0V36Zm0-8.73H41.61v-1a1,1,0,0,1,2.08,0v1Z"/>
    <line x1="25.25" y1="1.65" x2="25.25" y2="6.81" fill="none" stroke="#000" stroke-miterlimit="10" stroke-width="1.85"/>
    <line x1="23.2" y1="3.5" x2="27.3" y2="3.5" fill="none" stroke="#000" stroke-miterlimit="10" stroke-width="1.85"/>
  </g>
</svg>
