<svg id="c2f26460-eba2-42ea-8113-51a38fcf1407" data-name="Layer 22 copy" xmlns="http://www.w3.org/2000/svg" width="50.5" height="50.5" viewBox="0 0 50.5 50.5">
  <title>maps</title>
  <g>
    <polygon points="28.34 18.86 33.16 26.14 35.57 26.04 39.65 19.75 42.01 20.8 42.99 25.14 50.23 44.62 36.93 41.48 24.31 45.14 12.42 41.48 0.9 44.32 7.29 20.8 15.95 18.24 21.99 20.97 27.89 20.97 28.34 18.86"/>
    <path d="M50.23,44.62,42.64,21.53A1.24,1.24,0,0,0,42,20.8l-2.36-1c-.37.73-.79,1.47-1.1,2.15l1.94.89,6.7,20.37-9.27-2.88L35.57,26a3.93,3.93,0,0,1-1.36.26,3.38,3.38,0,0,1-1-.16l2.36,14.19-9.69,3V22.63L29.44,21l-1.1-2.15-3.72,1.68L16.72,17a1.11,1.11,0,0,0-1,0L7.29,20.8a1.24,1.24,0,0,0-.63.73L-.93,44.62a1.14,1.14,0,0,0,.26,1.2,1.28,1.28,0,0,0,1.2.31l11.89-3.67,11.89,3.67a1.73,1.73,0,0,0,.73,0l11.89-3.67,11.89,3.67a.89.89,0,0,0,.37.05,1,1,0,0,0,.84-.37A1.38,1.38,0,0,0,50.23,44.62ZM11.38,40.28,2.06,43.16l6.7-20.37,5.92-2.67Zm12,3.09-9.63-3,3.35-20.53,6.28,2.83Z" fill="#fff"/>
    <g>
      <path d="M33.91,26.49a2.35,2.35,0,0,1-2.12-1.31l-4.54-8.81A7.42,7.42,0,0,1,33.89,5.6a7.38,7.38,0,0,1,6.64,4.09,7.46,7.46,0,0,1,0,6.65C39.72,18,36.17,24.91,36,25.2A2.34,2.34,0,0,1,33.91,26.49Zm0-15a1.63,1.63,0,0,0-1.59,1.63,1.57,1.57,0,0,0,1.59,1.56,1.59,1.59,0,0,0,0-3.19Z"/>
      <path d="M33.89,7.1a5.92,5.92,0,0,1,5.3,8.59c-.82,1.68-4.51,8.83-4.51,8.83a.87.87,0,0,1-1.55,0l-4.55-8.83a5.92,5.92,0,0,1,5.3-8.59m0,9A3.09,3.09,0,1,0,30.82,13a3.1,3.1,0,0,0,3.09,3.09m0-12a9,9,0,0,0-4,.93,9.06,9.06,0,0,0-4,12l4.57,8.86a3.87,3.87,0,0,0,6.9,0c.13-.26,3.69-7.16,4.52-8.86a8.92,8.92,0,0,0-8-12.9Zm-.07,9c0-.09.06-.13.09-.13a.09.09,0,1,1,0,.19c-.06,0-.08,0-.09-.06Z" fill="#fff"/>
    </g>
  </g>
</svg>
