<svg id="cca01683-d765-4d6d-b879-c44d2ed65252" data-name="all layers" xmlns="http://www.w3.org/2000/svg" width="50.5" height="50.5" viewBox="0 0 50.5 50.5">
  <title>all-layers</title>
  <g>
    <path d="M44.66,34.85l-5.48-2.68-10.7,5.24a7.31,7.31,0,0,1-6.41,0L11.36,32.17,5.88,34.85a1,1,0,0,0,0,1.84L23.26,45.2a4.59,4.59,0,0,0,4,0l17.38-8.51a1,1,0,0,0,0-1.84Z"/>
    <path d="M44.66,24.84,39,22.07,27.88,27.53a6,6,0,0,1-5.22,0L11.52,22.07,5.87,24.84a1,1,0,0,0,0,1.84l17.39,8.51a4.58,4.58,0,0,0,4,0l17.38-8.51a1,1,0,0,0,0-1.84Z"/>
    <path d="M5.88,16.65l17.39,8.51a4.59,4.59,0,0,0,4,0l17.38-8.51a1,1,0,0,0,0-1.83L27.28,6.31a5,5,0,0,0-2-.6,4.73,4.73,0,0,0-2.05.6L5.88,14.82a1,1,0,0,0,0,1.83ZM24.46,8.54a1.86,1.86,0,0,1,1.63,0l14.7,7.2-14.71,7.2a1.86,1.86,0,0,1-1.63,0L9.75,15.74Z"/>
  </g>
</svg>
