<svg xmlns="http://www.w3.org/2000/svg" width="50.5" height="50.5" viewBox="0 0 50.5 50.5">
  <title>menu</title>
  <g id="6c018205-430e-4f16-8b2c-fbd92b4f491c" data-name="Layer 24">
    <g>
      <path d="M7.38,38.58A3.64,3.64,0,0,0,11,42.22H40.11a3.64,3.64,0,0,0,0-7.27H11A3.64,3.64,0,0,0,7.38,38.58Z"/>
      <path d="M7.38,25.25A3.64,3.64,0,0,0,11,28.89H40.11a3.64,3.64,0,0,0,0-7.27H11A3.64,3.64,0,0,0,7.38,25.25Z"/>
      <path d="M11,8.28a3.64,3.64,0,0,0,0,7.27H40.11a3.64,3.64,0,0,0,0-7.27Z"/>
    </g>
  </g>
</svg>
