<?xml version="1.0" encoding="utf-8"?>
<!-- Generator: Adobe Illustrator 21.1.0, SVG Export Plug-In . SVG Version: 6.00 Build 0)  -->
<svg version="1.1" id="Layer_1" xmlns="http://www.w3.org/2000/svg" xmlns:xlink="http://www.w3.org/1999/xlink" x="0px" y="0px"
	 viewBox="0 0 24 30" style="enable-background:new 0 0 24 30;" xml:space="preserve">
<path d="M23,9.1c0.6,0,1-0.4,1-1v-3c0-0.6-0.4-1-1-1H1c-0.6,0-1,0.4-1,1v3c0,0.6,0.4,1,1,1h1v9H1c-0.6,0-1,0.4-1,1v4
	c0,0.6,0.4,1,1,1h1v3c0,0.6,0.4,1,1,1h3c0.6,0,1-0.4,1-1v-3h10v3c0,0.6,0.4,1,1,1h3c0.6,0,1-0.4,1-1v-3h1c0.6,0,1-0.4,1-1v-4
	c0-0.6-0.4-1-1-1h-1v-9H23z M5,18.1H4v-9h1V18.1z M13,18.1H7v-9h4v1h-1c-0.6,0-1,0.4-1,1c0,0.6,0.4,1,1,1h4c0.6,0,1-0.4,1-1
	c0-0.6-0.4-1-1-1h-1v-1h4v9H13 M20,18.1h-1v-9h1V18.1z"/>
<path d="M13,4.1v-1h4.4c0.6,0,1-0.4,1-1s-0.4-1-1-1H6.7c-0.6,0-1,0.4-1,1s0.4,1,1,1H11v1"/>
</svg>
